<svg width="40" height="40" viewBox="0 0 40 40" fill="none" xmlns="http://www.w3.org/2000/svg">
<path fill-rule="evenodd" clip-rule="evenodd" d="M17.7666 14.4322C18.113 14.5987 18.3334 14.9491 18.3334 15.3335V24.6668C18.3334 25.2191 17.8857 25.6668 17.3334 25.6668C16.7811 25.6668 16.3334 25.2191 16.3334 24.6668V17.4141L14.6247 18.781C14.1935 19.1261 13.5642 19.0561 13.2192 18.6249C12.8742 18.1936 12.9441 17.5643 13.3753 17.2193L16.7087 14.5526C17.0088 14.3125 17.4201 14.2657 17.7666 14.4322ZM23 16.3335C22.2637 16.3335 21.6667 16.9305 21.6667 17.6668V22.3335C21.6667 23.0699 22.2637 23.6668 23 23.6668C23.7364 23.6668 24.3334 23.0699 24.3334 22.3335V17.6668C24.3334 16.9305 23.7364 16.3335 23 16.3335ZM19.6667 17.6668C19.6667 15.8259 21.1591 14.3335 23 14.3335C24.841 14.3335 26.3334 15.8259 26.3334 17.6668V22.3335C26.3334 24.1745 24.841 25.6668 23 25.6668C21.1591 25.6668 19.6667 24.1745 19.6667 22.3335V17.6668Z" fill="white" fill-opacity="0.3"/>
<path fill-rule="evenodd" clip-rule="evenodd" d="M19.0988 6.23332C19.2653 5.88685 19.6157 5.6665 20.0001 5.6665C20.9805 5.6665 21.9389 5.76509 22.8657 5.95321C29.4085 7.28133 34.3334 13.0643 34.3334 19.9998C34.3334 27.9159 27.9162 34.3332 20.0001 34.3332C12.084 34.3332 5.66675 27.9159 5.66675 19.9998C5.66675 14.1207 9.20621 9.07048 14.2664 6.8596C14.7725 6.63848 15.362 6.86949 15.5831 7.37558C15.8042 7.88167 15.5732 8.47119 15.0671 8.69231C10.7091 10.5964 7.66675 14.9439 7.66675 19.9998C7.66675 26.8113 13.1886 32.3332 20.0001 32.3332C26.8116 32.3332 32.3334 26.8113 32.3334 19.9998C32.3334 14.4659 28.6878 9.78147 23.6667 8.22042V9.99984C23.6667 10.4245 23.3985 10.8029 22.9978 10.9435C22.597 11.084 22.1512 10.9562 21.8859 10.6245L19.2192 7.2912C18.9791 6.99103 18.9323 6.57978 19.0988 6.23332Z" fill="white" fill-opacity="0.3"/>
</svg>
