<svg width="40" height="40" viewBox="0 0 40 40" fill="none" xmlns="http://www.w3.org/2000/svg">
<path fill-rule="evenodd" clip-rule="evenodd" d="M17.7666 14.4322C18.113 14.5987 18.3334 14.9491 18.3334 15.3335V24.6668C18.3334 25.2191 17.8857 25.6668 17.3334 25.6668C16.7811 25.6668 16.3334 25.2191 16.3334 24.6668V17.4141L14.6247 18.781C14.1935 19.1261 13.5642 19.0561 13.2192 18.6249C12.8742 18.1936 12.9441 17.5643 13.3753 17.2193L16.7087 14.5526C17.0088 14.3125 17.4201 14.2657 17.7666 14.4322ZM23 16.3335C22.2637 16.3335 21.6667 16.9305 21.6667 17.6668V22.3335C21.6667 23.0699 22.2637 23.6668 23 23.6668C23.7364 23.6668 24.3334 23.0699 24.3334 22.3335V17.6668C24.3334 16.9305 23.7364 16.3335 23 16.3335ZM19.6667 17.6668C19.6667 15.8259 21.1591 14.3335 23 14.3335C24.841 14.3335 26.3334 15.8259 26.3334 17.6668V22.3335C26.3334 24.1745 24.841 25.6668 23 25.6668C21.1591 25.6668 19.6667 24.1745 19.6667 22.3335V17.6668Z" fill="white" fill-opacity="0.3"/>
<path fill-rule="evenodd" clip-rule="evenodd" d="M20.9014 6.23332C20.7349 5.88685 20.3845 5.6665 20.0001 5.6665C19.0196 5.6665 18.0612 5.76509 17.1345 5.95321C10.5916 7.28133 5.66675 13.0643 5.66675 19.9998C5.66675 27.9159 12.084 34.3332 20.0001 34.3332C27.9162 34.3332 34.3334 27.9159 34.3334 19.9998C34.3334 14.1207 30.794 9.07048 25.7338 6.8596C25.2277 6.63848 24.6382 6.86949 24.4171 7.37558C24.1959 7.88167 24.427 8.47119 24.933 8.69231C29.291 10.5964 32.3334 14.9439 32.3334 19.9998C32.3334 26.8113 26.8116 32.3332 20.0001 32.3332C13.1886 32.3332 7.66675 26.8113 7.66675 19.9998C7.66675 14.4659 11.3124 9.78147 16.3334 8.22042V9.99984C16.3334 10.4245 16.6017 10.8029 17.0024 10.9435C17.4032 11.084 17.849 10.9562 18.1143 10.6245L20.7809 7.2912C21.0211 6.99103 21.0679 6.57978 20.9014 6.23332Z" fill="white" fill-opacity="0.3"/>
</svg>
