<svg width="40" height="40" viewBox="0 0 40 40" fill="none" xmlns="http://www.w3.org/2000/svg">
<path fill-rule="evenodd" clip-rule="evenodd" d="M20 40C31.0457 40 40 31.0457 40 20C40 8.9543 31.0457 0 20 0C8.9543 0 0 8.9543 0 20C0 31.0457 8.9543 40 20 40ZM21.5 14C21.5 13.1716 20.8284 12.5 20 12.5C19.1716 12.5 18.5 13.1716 18.5 14L18.5 18.5H14C13.1716 18.5 12.5 19.1716 12.5 20C12.5 20.8285 13.1716 21.5 14 21.5H18.5V26C18.5 26.8284 19.1716 27.5 20 27.5C20.8284 27.5 21.5 26.8284 21.5 26L21.5 21.5H26C26.8284 21.5 27.5 20.8285 27.5 20C27.5 19.1716 26.8284 18.5 26 18.5H21.5V14Z" fill="white" fill-opacity="0.3"/>
</svg>
