<svg width="30" height="30" viewBox="0 0 30 30" fill="none" xmlns="http://www.w3.org/2000/svg">
<path d="M20.3739 12.3736C20.7644 11.9831 20.7644 11.3499 20.3739 10.9594C19.9833 10.5689 19.3502 10.5689 18.9596 10.9594L13.0001 16.919L11.0405 14.9594C10.65 14.5689 10.0168 14.5689 9.62631 14.9594C9.23578 15.3499 9.23578 15.9831 9.62631 16.3736L12.293 19.0403C12.6835 19.4308 13.3167 19.4308 13.7072 19.0403L20.3739 12.3736Z" fill="white" fill-opacity="0.3"/>
<path fill-rule="evenodd" clip-rule="evenodd" d="M15.0001 0.666504C7.084 0.666504 0.666748 7.08376 0.666748 14.9998C0.666748 22.9159 7.084 29.3332 15.0001 29.3332C22.9162 29.3332 29.3334 22.9159 29.3334 14.9998C29.3334 7.08376 22.9162 0.666504 15.0001 0.666504ZM2.66675 14.9998C2.66675 8.18832 8.18857 2.6665 15.0001 2.6665C21.8116 2.6665 27.3334 8.18832 27.3334 14.9998C27.3334 21.8113 21.8116 27.3332 15.0001 27.3332C8.18857 27.3332 2.66675 21.8113 2.66675 14.9998Z" fill="white" fill-opacity="0.3"/>
</svg>
