<svg width="30" height="30" viewBox="0 0 30 30" fill="none" xmlns="http://www.w3.org/2000/svg">
<path d="M12.3738 10.9594C11.9833 10.5689 11.3501 10.5689 10.9596 10.9594C10.5691 11.3499 10.5691 11.9831 10.9596 12.3736L13.5858 14.9998L10.9596 17.626C10.5691 18.0166 10.5691 18.6497 10.9596 19.0403C11.3502 19.4308 11.9833 19.4308 12.3738 19.0403L15.0001 16.414L17.6262 19.0402C18.0168 19.4308 18.6499 19.4308 19.0405 19.0402C19.431 18.6497 19.431 18.0165 19.0405 17.626L16.4143 14.9998L19.0405 12.3736C19.431 11.9831 19.431 11.3499 19.0405 10.9594C18.65 10.5689 18.0168 10.5689 17.6263 10.9594L15.0001 13.5856L12.3738 10.9594Z" fill="white" fill-opacity="0.3"/>
<path fill-rule="evenodd" clip-rule="evenodd" d="M15.0001 0.666504C7.084 0.666504 0.666748 7.08376 0.666748 14.9998C0.666748 22.9159 7.084 29.3332 15.0001 29.3332C22.9162 29.3332 29.3334 22.9159 29.3334 14.9998C29.3334 7.08376 22.9162 0.666504 15.0001 0.666504ZM2.66675 14.9998C2.66675 8.18832 8.18857 2.6665 15.0001 2.6665C21.8116 2.6665 27.3334 8.18832 27.3334 14.9998C27.3334 21.8113 21.8116 27.3332 15.0001 27.3332C8.18857 27.3332 2.66675 21.8113 2.66675 14.9998Z" fill="white" fill-opacity="0.3"/>
</svg>
