<svg width="26" height="25" viewBox="0 0 26 25" fill="none" xmlns="http://www.w3.org/2000/svg">
<path fill-rule="evenodd" clip-rule="evenodd" d="M8.66667 1.6665C8.66667 1.11422 9.11438 0.666504 9.66667 0.666504H16.3333C16.8856 0.666504 17.3333 1.11422 17.3333 1.6665C17.3333 2.21879 16.8856 2.6665 16.3333 2.6665H9.66667C9.11438 2.6665 8.66667 2.21879 8.66667 1.6665ZM10.2777 4.00013H15.7219C17.5475 4.00012 18.9941 4.00011 20.1492 4.11762C21.3327 4.23802 22.3208 4.48999 23.1851 5.06749C23.8766 5.52956 24.4704 6.12332 24.9324 6.81486C25.5099 7.6791 25.762 8.66704 25.8824 9.85053C26 11.0061 26 12.4533 26 14.28V14.3886C26 16.2142 26 17.6608 25.8825 18.8159C25.7621 19.9994 25.5101 20.9875 24.9326 21.8518C24.4706 22.5433 23.8768 23.1371 23.1853 23.5991C22.321 24.1766 21.3329 24.4286 20.1494 24.549C18.9943 24.6665 17.5477 24.6665 15.7221 24.6665H10.2779C8.45229 24.6665 7.00574 24.6665 5.85059 24.549C4.66707 24.4286 3.67902 24.1766 2.81472 23.5991C2.12318 23.1371 1.52943 22.5433 1.06736 21.8518C0.489858 20.9875 0.237886 19.9994 0.117489 18.8159C-2.10603e-05 17.6608 -1.16044e-05 16.2142 2.3706e-07 14.3886V14.2752C-1.16044e-05 12.4505 -2.11398e-05 11.0045 0.117466 9.84983C0.237843 8.66672 0.489776 7.67897 1.06716 6.81486C1.52923 6.12332 2.12299 5.52956 2.81452 5.06749C3.67882 4.48999 4.66687 4.23802 5.85039 4.11762C7.00554 4.00011 8.45208 4.00012 10.2777 4.00013ZM6.0528 6.10735C5.02742 6.21166 4.40656 6.4091 3.92566 6.73043C3.45251 7.04658 3.04625 7.45284 2.7301 7.92599C2.40885 8.40677 2.21147 9.02737 2.10719 10.0523C2.00121 11.0939 2 12.4381 2 14.3307V14.3332C2 16.2266 2.00121 17.5714 2.10722 18.6135C2.21153 19.6389 2.40897 20.2597 2.7303 20.7406C3.04645 21.2138 3.45271 21.6201 3.92586 21.9362C4.40676 22.2575 5.02762 22.455 6.053 22.5593C7.09511 22.6653 8.43991 22.6665 10.3333 22.6665H15.6667C17.5601 22.6665 18.9049 22.6653 19.947 22.5593C20.9724 22.455 21.5932 22.2575 22.0741 21.9362C22.5473 21.6201 22.9535 21.2138 23.2697 20.7406C23.591 20.2597 23.7885 19.6389 23.8928 18.6135C23.9988 17.5714 24 16.2266 24 14.3332C24 12.4398 23.9987 11.095 23.8927 10.053C23.7883 9.02776 23.5909 8.40694 23.2695 7.92599C22.9534 7.45284 22.5471 7.04659 22.0739 6.73043C21.593 6.4091 20.9722 6.21166 19.9468 6.10735C18.9047 6.00134 17.5599 6.00013 15.6665 6.00013H10.3331C8.43971 6.00013 7.09491 6.00134 6.0528 6.10735ZM13 11.3332C11.3431 11.3332 10 12.6763 10 14.3332C10 15.99 11.3431 17.3332 13 17.3332C14.6569 17.3332 16 15.99 16 14.3332C16 12.6763 14.6569 11.3332 13 11.3332ZM8 14.3332C8 11.5717 10.2386 9.33317 13 9.33317C15.7614 9.33317 18 11.5717 18 14.3332C18 17.0946 15.7614 19.3332 13 19.3332C10.2386 19.3332 8 17.0946 8 14.3332ZM19.3333 10.3332C19.3333 9.78089 19.781 9.33317 20.3333 9.33317H21C21.5523 9.33317 22 9.78089 22 10.3332C22 10.8855 21.5523 11.3332 21 11.3332H20.3333C19.781 11.3332 19.3333 10.8855 19.3333 10.3332Z" fill="white"/>
</svg>
