<svg width="26" height="24" viewBox="0 0 26 24" fill="none" xmlns="http://www.w3.org/2000/svg">
<path d="M23.2493 14.7908L23.4937 12.5179C23.6242 11.3052 23.7103 10.5044 23.6427 9.99986L23.6663 10C24.7709 10 25.6663 9.10457 25.6663 8C25.6663 6.89543 24.7709 6 23.6663 6C22.5618 6 21.6663 6.89543 21.6663 8C21.6663 8.49955 21.8495 8.95632 22.1523 9.30683C21.7176 9.57515 21.1492 10.1413 20.2937 10.9935L20.2937 10.9935C19.6346 11.6501 19.305 11.9783 18.9374 12.0292C18.7337 12.0573 18.5262 12.0284 18.3381 11.9455C17.9986 11.7961 17.7723 11.3902 17.3196 10.5786L14.9336 6.30053C14.6544 5.79983 14.4206 5.38076 14.2099 5.04353C15.0744 4.6025 15.6663 3.70371 15.6663 2.66667C15.6663 1.19391 14.4724 0 12.9997 0C11.5269 0 10.333 1.19391 10.333 2.66667C10.333 3.70371 10.925 4.6025 11.7895 5.04353C11.5787 5.38079 11.345 5.79979 11.0657 6.30053L8.67975 10.5786C8.22709 11.3902 8.00075 11.7961 7.66128 11.9455C7.47319 12.0284 7.26564 12.0573 7.06194 12.0292C6.6943 11.9783 6.36476 11.6501 5.70567 10.9935C4.85016 10.1413 4.28176 9.57515 3.84705 9.30683C4.14986 8.95632 4.33301 8.49955 4.33301 8C4.33301 6.89543 3.43758 6 2.33301 6C1.22844 6 0.333008 6.89543 0.333008 8C0.333008 9.10457 1.22844 10 2.33301 10L2.35663 9.99986C2.28903 10.5044 2.37516 11.3052 2.5056 12.5179L2.75008 14.7908C2.88578 16.0524 2.99863 17.2529 3.13684 18.3333H22.8625C23.0007 17.2529 23.1136 16.0524 23.2493 14.7908Z" fill="white"/>
<path d="M11.5491 24H14.4503C18.2315 24 20.1221 24 21.3836 22.8709C21.9342 22.3781 22.2828 21.4896 22.5344 20.3333H3.46495C3.71654 21.4896 4.06518 22.3781 4.61578 22.8709C5.87723 24 7.76785 24 11.5491 24Z" fill="white"/>
</svg>
