<svg width="17" height="12" viewBox="0 0 17 12" fill="none" xmlns="http://www.w3.org/2000/svg">
<path fill-rule="evenodd" clip-rule="evenodd" d="M0.930571 0.51192C1.20014 0.197426 1.67361 0.161005 1.98811 0.430571L8.50001 6.01221L15.0119 0.430571C15.3264 0.161005 15.7999 0.197426 16.0695 0.51192C16.339 0.826414 16.3026 1.29989 15.9881 1.56946L8.98811 7.56946C8.70724 7.8102 8.29279 7.8102 8.01192 7.56946L1.01192 1.56946C0.697426 1.29989 0.661005 0.826414 0.930571 0.51192ZM0.930571 4.51192C1.20014 4.19743 1.67361 4.161 1.98811 4.43057L8.50001 10.0122L15.0119 4.43057C15.3264 4.161 15.7999 4.19743 16.0695 4.51192C16.339 4.82641 16.3026 5.29989 15.9881 5.56946L8.98811 11.5695C8.70724 11.8102 8.29279 11.8102 8.01192 11.5695L1.01192 5.56946C0.697426 5.29989 0.661005 4.82641 0.930571 4.51192Z" fill="white" fill-opacity="0.3"/>
</svg>
