<svg width="22" height="22" viewBox="0 0 22 22" fill="none" xmlns="http://www.w3.org/2000/svg">
<path fill-rule="evenodd" clip-rule="evenodd" d="M10.9426 0.25L12.5 0.25C12.9142 0.25 13.25 0.585787 13.25 1C13.25 1.41421 12.9142 1.75 12.5 1.75H11C8.62177 1.75 6.91356 1.75159 5.61358 1.92637C4.33517 2.09825 3.56445 2.42514 2.9948 2.9948C2.42514 3.56445 2.09825 4.33517 1.92637 5.61358C1.75159 6.91356 1.75 8.62177 1.75 11C1.75 13.3782 1.75159 15.0864 1.92637 16.3864C2.09825 17.6648 2.42514 18.4355 2.9948 19.0052C3.56445 19.5749 4.33517 19.9018 5.61358 20.0736C6.91356 20.2484 8.62177 20.25 11 20.25C13.3782 20.25 15.0864 20.2484 16.3864 20.0736C17.6648 19.9018 18.4355 19.5749 19.0052 19.0052C19.5749 18.4355 19.9018 17.6648 20.0736 16.3864C20.2484 15.0864 20.25 13.3782 20.25 11V9.5C20.25 9.08579 20.5858 8.75 21 8.75C21.4142 8.75 21.75 9.08579 21.75 9.5V11.0574C21.75 13.3658 21.75 15.1748 21.5603 16.5863C21.366 18.031 20.9607 19.1711 20.0659 20.0659C19.1711 20.9607 18.031 21.366 16.5863 21.5603C15.1748 21.75 13.3658 21.75 11.0574 21.75H10.9426C8.63423 21.75 6.82519 21.75 5.41371 21.5603C3.96897 21.366 2.82895 20.9607 1.93414 20.0659C1.03933 19.1711 0.633986 18.031 0.439747 16.5863C0.249977 15.1748 0.249987 13.3658 0.25 11.0574V10.9426C0.249987 8.63423 0.249977 6.82519 0.439747 5.41371C0.633986 3.96897 1.03933 2.82895 1.93414 1.93414C2.82895 1.03933 3.96897 0.633986 5.41371 0.439747C6.82519 0.249977 8.63423 0.249987 10.9426 0.25ZM15.7705 1.27592C17.1384 -0.091971 19.3562 -0.091971 20.7241 1.27592C22.092 2.6438 22.092 4.86158 20.7241 6.22947L14.076 12.8776C13.7047 13.2489 13.4721 13.4815 13.2126 13.684C12.9069 13.9224 12.5761 14.1268 12.2261 14.2936C11.929 14.4352 11.6169 14.5392 11.1188 14.7052L8.21426 15.6734C7.67801 15.8521 7.0868 15.7126 6.68711 15.3129C6.28742 14.9132 6.14785 14.322 6.3266 13.7857L7.29477 10.8812C7.46079 10.3831 7.56479 10.071 7.7064 9.77385C7.87319 9.42388 8.07761 9.09311 8.31605 8.78742C8.51849 8.52787 8.7511 8.29529 9.12245 7.924L15.7705 1.27592ZM19.6634 2.33658C18.8813 1.55448 17.6133 1.55448 16.8312 2.33658L16.4546 2.7132C16.4773 2.80906 16.509 2.92327 16.5532 3.05066C16.6965 3.46372 16.9677 4.00771 17.48 4.51999C17.9923 5.03227 18.5363 5.30346 18.9493 5.44677C19.0767 5.49097 19.1909 5.52273 19.2868 5.54543L19.6634 5.16881C20.4455 4.38671 20.4455 3.11867 19.6634 2.33658ZM18.1051 6.72709C17.5892 6.50519 16.9882 6.14946 16.4193 5.58065C15.8505 5.01185 15.4948 4.41082 15.2729 3.89486L10.2175 8.95026C9.80099 9.36677 9.63764 9.53195 9.49881 9.70995C9.32738 9.92974 9.1804 10.1676 9.06048 10.4192C8.96337 10.623 8.88868 10.8429 8.7024 11.4017L8.27051 12.6974L9.30257 13.7295L10.5983 13.2976C11.1571 13.1113 11.377 13.0366 11.5808 12.9395C11.8324 12.8196 12.0703 12.6726 12.2901 12.5012C12.468 12.3624 12.6332 12.199 13.0497 11.7825L18.1051 6.72709Z" fill="white"/>
</svg>
