<svg width="60" height="60" viewBox="0 0 60 60" fill="none" xmlns="http://www.w3.org/2000/svg">
<path d="M50.8714 28.047C50.7643 26.976 49.8428 26.178 48.75 26.178H32.5714C31.3928 26.178 30.4286 27.123 30.4286 28.278V31.869C30.4286 33.024 31.3928 33.969 32.5714 33.969H42.2357C42 35.901 40.7143 38.82 37.8643 40.773C36.0429 42.012 33.6214 42.873 30.4286 42.873C30.2786 42.873 30.15 42.873 30 42.852C24.5357 42.684 19.9072 39.093 18.2357 34.158C17.7857 32.835 17.5286 31.449 17.5286 30C17.5286 28.551 17.7857 27.144 18.2143 25.842C18.3429 25.464 18.4929 25.086 18.6643 24.708C20.6357 20.361 24.9429 17.295 30 17.148C30.1286 17.127 30.2786 17.127 30.4286 17.127C33.4928 17.127 35.7857 18.114 37.3928 19.206C38.2286 19.773 39.3428 19.647 40.0714 18.954L43.05 16.098C43.9928 15.195 43.9071 13.662 42.8357 12.906C39.4286 10.449 35.2714 9 30.4286 9C30.2786 9 30.15 9.00002 30 9.02102C21.7929 9.16802 14.7429 13.83 11.2929 20.571C9.83571 23.427 9 26.619 9 30C9 33.381 9.83571 36.573 11.2929 39.429H11.3143C14.7643 46.17 21.8143 50.832 30 50.979C30.15 51 30.2786 51 30.4286 51C36.2143 51 41.0786 49.131 44.6143 45.918C48.6643 42.243 51 36.867 51 30.462C51 29.559 50.9571 28.782 50.8714 28.047Z" fill="white"/>
</svg>
