<svg width="42" height="48" viewBox="0 0 42 48" fill="none" xmlns="http://www.w3.org/2000/svg">
<path fill-rule="evenodd" clip-rule="evenodd" d="M38.8385 41.1832C40.3189 39.0232 40.8709 37.9193 42 35.4953C33.6697 32.4714 32.3399 21.1196 40.5698 16.7756C38.0607 13.7517 34.5228 11.9998 31.1857 11.9998C28.777 11.9998 27.1209 12.5998 25.6406 13.1518C24.386 13.6078 23.2569 14.0157 21.8518 14.0157C20.3463 14.0157 19.0165 13.5598 17.6114 13.0798C16.0808 12.5518 14.475 11.9998 12.4677 11.9998C8.72913 11.9998 4.73965 14.1837 2.20544 17.9276C-1.3575 23.2075 -0.730214 33.0953 5.01566 41.5432C7.07313 44.5671 9.83315 47.951 13.4212 47.999C14.9267 48.023 15.9052 47.5911 16.9841 47.1351C18.2136 46.6071 19.5434 46.0311 21.8769 46.0311C24.2104 46.0071 25.5151 46.6071 26.7446 47.1351C27.7984 47.5911 28.7519 48.023 30.2322 47.999C33.8705 47.951 36.781 44.2071 38.8385 41.1832Z" fill="white"/>
<path fill-rule="evenodd" clip-rule="evenodd" d="M30.6588 0C31.0603 2.63995 29.9312 5.25592 28.4508 7.07989C26.87 9.04785 24.11 10.5838 21.4503 10.4878C20.9736 7.94383 22.2031 5.32787 23.7086 3.57591C25.3897 1.65594 28.225 0.167997 30.6588 0Z" fill="white"/>
</svg>
