<svg width="16" height="14" viewBox="0 0 16 14" fill="none" xmlns="http://www.w3.org/2000/svg">
<path fill-rule="evenodd" clip-rule="evenodd" d="M3.74973 1.9494C2.64374 2.45496 1.8335 3.65743 1.8335 5.09134C1.8335 6.55627 2.43297 7.68543 3.29235 8.65312C4.00065 9.45068 4.85805 10.1117 5.69425 10.7563C5.89285 10.9095 6.09026 11.0617 6.28419 11.2145C6.63488 11.491 6.94771 11.7336 7.24924 11.9098C7.55092 12.0861 7.79376 12.1666 8.00016 12.1666C8.20656 12.1666 8.4494 12.0861 8.75109 11.9098C9.05261 11.7336 9.36544 11.491 9.71613 11.2145C9.91006 11.0617 10.1075 10.9095 10.3061 10.7563C11.1423 10.1117 11.9997 9.45068 12.708 8.65312C13.5674 7.68543 14.1668 6.55627 14.1668 5.09134C14.1668 3.65743 13.3566 2.45496 12.2506 1.9494C11.1761 1.45826 9.73239 1.58832 8.36041 3.01376C8.26615 3.11169 8.13608 3.16703 8.00016 3.16703C7.86424 3.16703 7.73418 3.11169 7.63992 3.01376C6.26794 1.58832 4.82421 1.45826 3.74973 1.9494ZM8.00016 1.97248C6.45879 0.593435 4.7328 0.40052 3.334 1.03991C1.85664 1.71522 0.833496 3.28329 0.833496 5.09134C0.833496 6.86836 1.57383 8.22397 2.54464 9.31714C3.32208 10.1926 4.27364 10.9252 5.11405 11.5723C5.30455 11.719 5.48935 11.8613 5.66511 11.9999C6.0066 12.2691 6.37319 12.5561 6.74471 12.7732C7.11607 12.9902 7.5399 13.1666 8.00016 13.1666C8.46043 13.1666 8.88426 12.9902 9.25561 12.7732C9.62713 12.5561 9.99373 12.2691 10.3352 11.9999C10.511 11.8613 10.6958 11.719 10.8863 11.5723C11.7267 10.9252 12.6782 10.1926 13.4557 9.31714C14.4265 8.22397 15.1668 6.86836 15.1668 5.09134C15.1668 3.28329 14.1437 1.71522 12.6663 1.03991C11.2675 0.40052 9.54153 0.593435 8.00016 1.97248Z" fill="white"/>
</svg>
