<svg width="26" height="30" viewBox="0 0 26 30" fill="none" xmlns="http://www.w3.org/2000/svg">
<path fill-rule="evenodd" clip-rule="evenodd" d="M1.11429 10.2439C1.72969 10.2439 2.22857 10.7353 2.22857 11.3415V12.8049C2.22857 18.6645 7.05111 23.4146 13 23.4146C18.9489 23.4146 23.7714 18.6645 23.7714 12.8049V11.3415C23.7714 10.7353 24.2703 10.2439 24.8857 10.2439C25.5011 10.2439 26 10.7353 26 11.3415V12.8049C26 19.5071 20.7724 25.0067 14.1143 25.5634V28.9024C14.1143 29.5086 13.6154 30 13 30C12.3846 30 11.8857 29.5086 11.8857 28.9024V25.5634C5.22763 25.0067 0 19.5071 0 12.8049V11.3415C0 10.7353 0.498883 10.2439 1.11429 10.2439Z" fill="white"/>
<path fill-rule="evenodd" clip-rule="evenodd" d="M13 0C8.28191 0 4.45714 3.76736 4.45714 8.41463V12.8049C4.45714 17.4522 8.28191 21.2195 13 21.2195C17.7181 21.2195 21.5429 17.4522 21.5429 12.8049V8.41463C21.5429 3.76736 17.7181 0 13 0ZM15.9714 13.9024C16.5868 13.9024 17.0857 13.411 17.0857 12.8049C17.0857 12.1987 16.5868 11.7073 15.9714 11.7073H10.0286C9.41317 11.7073 8.91429 12.1987 8.91429 12.8049C8.91429 13.411 9.41317 13.9024 10.0286 13.9024H15.9714ZM15.6 8.41463C15.6 9.0208 15.1011 9.5122 14.4857 9.5122H11.5143C10.8989 9.5122 10.4 9.0208 10.4 8.41463C10.4 7.80847 10.8989 7.31707 11.5143 7.31707H14.4857C15.1011 7.31707 15.6 7.80847 15.6 8.41463Z" fill="white"/>
</svg>
