<svg width="30" height="30" viewBox="0 0 30 30" fill="none" xmlns="http://www.w3.org/2000/svg">
<path d="M8.00214 14.7866C8.02889 13.4049 8.04227 12.7141 8.4807 12.1227C8.56073 12.0148 8.67814 11.8865 8.77655 11.7996C9.31572 11.3231 10.0276 11.3231 11.4513 11.3231C11.9599 11.3231 12.2143 11.3231 12.4567 11.2534C12.5071 11.2389 12.5569 11.2222 12.6061 11.2034C12.8429 11.1126 13.0552 10.9563 13.4799 10.6437C15.1555 9.41054 15.9933 8.79395 16.6965 9.0618C16.8313 9.11316 16.9618 9.18729 17.0784 9.27872C17.6863 9.75558 17.7325 10.8651 17.8249 13.084C17.8591 13.9057 17.8824 14.6089 17.8824 15C17.8824 15.3911 17.8591 16.0943 17.8249 16.916C17.7325 19.1349 17.6863 20.2444 17.0784 20.7213C16.9618 20.8127 16.8313 20.8868 16.6965 20.9382C15.9933 21.2061 15.1555 20.5895 13.4799 19.3563C13.0552 19.0437 12.8429 18.8874 12.6061 18.7966C12.5569 18.7778 12.5071 18.7611 12.4567 18.7466C12.2143 18.6769 11.9599 18.6769 11.4513 18.6769C10.0276 18.6769 9.31572 18.6769 8.77655 18.2004C8.67814 18.1135 8.56073 17.9852 8.4807 17.8773C8.04227 17.2859 8.02889 16.5951 8.00214 15.2134C8.00074 15.1408 8 15.0696 8 15C8 14.9304 8.00074 14.8592 8.00214 14.7866Z" fill="white"/>
<path fill-rule="evenodd" clip-rule="evenodd" d="M18.5212 13.1394C18.7142 12.924 19.027 12.924 19.22 13.1394L20.1882 14.2202L21.1565 13.1394C21.3495 12.924 21.6623 12.924 21.8553 13.1394C22.0482 13.3548 22.0482 13.704 21.8553 13.9194L20.887 15.0002L21.8553 16.0809C22.0482 16.2963 22.0482 16.6455 21.8553 16.8609C21.6623 17.0763 21.3494 17.0763 21.1565 16.8609L20.1882 15.7802L19.22 16.8609C19.027 17.0763 18.7142 17.0763 18.5212 16.8609C18.3282 16.6455 18.3282 16.2963 18.5212 16.0809L19.4895 15.0002L18.5212 13.9194C18.3282 13.704 18.3282 13.3548 18.5212 13.1394Z" fill="white"/>
</svg>
