<svg width="18" height="18" viewBox="0 0 18 18" fill="none" xmlns="http://www.w3.org/2000/svg">
<path fill-rule="evenodd" clip-rule="evenodd" d="M8.99964 0.400024C5.57548 0.400024 2.79964 3.17586 2.79964 6.60002V7.16331C2.79964 7.72084 2.63461 8.26591 2.32534 8.7298L1.40646 10.1081C0.339984 11.7078 1.15415 13.8823 3.00902 14.3881C3.61351 14.553 4.22311 14.6924 4.83623 14.8065L4.83775 14.8106C5.45295 16.4521 7.0972 17.6 8.99959 17.6C10.902 17.6 12.5462 16.4521 13.1614 14.8106L13.1629 14.8065C13.7761 14.6925 14.3857 14.553 14.9903 14.3881C16.8451 13.8823 17.6593 11.7078 16.5928 10.1081L15.6739 8.72981C15.3647 8.26591 15.1996 7.72084 15.1996 7.16331V6.60002C15.1996 3.17586 12.4238 0.400024 8.99964 0.400024ZM11.7008 15.0296C9.90641 15.244 8.09276 15.244 6.2984 15.0296C6.86716 15.8468 7.85642 16.4 8.99959 16.4C10.1428 16.4 11.132 15.8468 11.7008 15.0296ZM3.99964 6.60002C3.99964 3.8386 6.23822 1.60002 8.99964 1.60002C11.7611 1.60002 13.9996 3.8386 13.9996 6.60002V7.16331C13.9996 7.95775 14.2348 8.73443 14.6755 9.39545L15.5944 10.7738C16.2065 11.692 15.7392 12.9401 14.6745 13.2304C10.9591 14.2437 7.04017 14.2437 3.32476 13.2304C2.2601 12.9401 1.79278 11.692 2.40492 10.7738L3.3238 9.39545C3.76448 8.73443 3.99964 7.95775 3.99964 7.16331V6.60002Z" fill="white"/>
</svg>
