<svg width="12" height="16" viewBox="0 0 12 16" fill="none" xmlns="http://www.w3.org/2000/svg">
<path d="M7.05222 2.54984C6.57769 2.21662 6.04027 1.87193 5.48387 1.53358L5.48386 1.53358C3.33906 0.229312 2.26666 -0.422821 1.30483 0.299198C0.343003 1.02122 0.255589 2.53271 0.0807629 5.5557C0.0313217 6.4106 0 7.24868 0 8C0 8.75132 0.0313209 9.5894 0.0807619 10.4443C0.255588 13.4673 0.343001 14.9788 1.30483 15.7008C2.26666 16.4228 3.33906 15.7707 5.48387 14.4664C6.04027 14.1281 6.57769 13.7834 7.05222 13.4502C7.59312 13.0703 8.18174 12.6145 8.77522 12.1304C10.9251 10.3766 12 9.49977 12 8C12 6.50024 10.9251 5.62336 8.77522 3.86961C8.18175 3.38548 7.59312 2.92966 7.05222 2.54984Z" fill="white"/>
</svg>
