<svg width="16" height="16" viewBox="0 0 16 16" fill="none" xmlns="http://www.w3.org/2000/svg">
<path d="M0.152241 1.23463C0 1.60217 0 2.06812 0 3V13C0 13.9319 0 14.3978 0.152241 14.7654C0.355228 15.2554 0.744577 15.6448 1.23463 15.8478C1.60217 16 2.06812 16 3 16C3.93188 16 4.39783 16 4.76537 15.8478C5.25542 15.6448 5.64477 15.2554 5.84776 14.7654C6 14.3978 6 13.9319 6 13V3C6 2.06812 6 1.60217 5.84776 1.23463C5.64477 0.744577 5.25542 0.355228 4.76537 0.152241C4.39783 0 3.93188 0 3 0C2.06812 0 1.60217 0 1.23463 0.152241C0.744577 0.355228 0.355228 0.744577 0.152241 1.23463Z" fill="white"/>
<path d="M10.1522 1.23463C10 1.60217 10 2.06812 10 3V13C10 13.9319 10 14.3978 10.1522 14.7654C10.3552 15.2554 10.7446 15.6448 11.2346 15.8478C11.6022 16 12.0681 16 13 16C13.9319 16 14.3978 16 14.7654 15.8478C15.2554 15.6448 15.6448 15.2554 15.8478 14.7654C16 14.3978 16 13.9319 16 13V3C16 2.06812 16 1.60217 15.8478 1.23463C15.6448 0.744577 15.2554 0.355228 14.7654 0.152241C14.3978 0 13.9319 0 13 0C12.0681 0 11.6022 0 11.2346 0.152241C10.7446 0.355228 10.3552 0.744577 10.1522 1.23463Z" fill="white"/>
</svg>
