<svg width="16" height="12" viewBox="0 0 16 12" fill="none" xmlns="http://www.w3.org/2000/svg">
<path fill-rule="evenodd" clip-rule="evenodd" d="M12.1401 1.88694C11.619 1.83393 10.9466 1.83333 9.99992 1.83333L5.99992 1.83333C5.0532 1.83333 4.3808 1.83393 3.85975 1.88694C3.34706 1.93909 3.03663 2.03781 2.79618 2.19848C2.5596 2.35655 2.35648 2.55968 2.1984 2.79626C2.03774 3.03671 1.93902 3.34714 1.88686 3.85983C1.83386 4.38088 1.83325 5.05328 1.83325 6C1.83325 6.94671 1.83386 7.61911 1.88686 8.14016C1.93902 8.65285 2.03774 8.96328 2.1984 9.20373C2.35648 9.44031 2.5596 9.64344 2.79618 9.80151C3.03663 9.96218 3.34706 10.0609 3.85975 10.1131C4.3808 10.1661 5.0532 10.1667 5.99992 10.1667H9.99992C10.9466 10.1667 11.619 10.1661 12.1401 10.1131C12.6528 10.0609 12.9632 9.96218 13.2037 9.80151C13.4402 9.64344 13.6434 9.44031 13.8014 9.20373C13.9621 8.96328 14.0608 8.65285 14.113 8.14016C14.166 7.61911 14.1666 6.94671 14.1666 6C14.1666 5.05328 14.166 4.38088 14.113 3.85983C14.0608 3.34714 13.9621 3.03671 13.8014 2.79626C13.6434 2.55968 13.4402 2.35655 13.2037 2.19848C12.9632 2.03781 12.6528 1.93909 12.1401 1.88694ZM12.2413 0.892072C12.8331 0.952271 13.3271 1.07826 13.7592 1.36701C14.105 1.59804 14.4019 1.89492 14.6329 2.24069C14.9217 2.67284 15.0476 3.16686 15.1078 3.75862C15.1666 4.3362 15.1666 5.05947 15.1666 5.97229V6.0277C15.1666 6.94052 15.1666 7.66379 15.1078 8.24136C15.0476 8.83313 14.9217 9.32715 14.6329 9.7593C14.4019 10.1051 14.105 10.4019 13.7592 10.633C13.3271 10.9217 12.8331 11.0477 12.2413 11.1079C11.6637 11.1667 10.9405 11.1667 10.0277 11.1667H5.97219C5.05938 11.1667 4.33612 11.1667 3.75855 11.1079C3.16679 11.0477 2.67276 10.9217 2.24061 10.633C1.89484 10.4019 1.59797 10.1051 1.36693 9.7593C1.07818 9.32716 0.952195 8.83313 0.891996 8.24137C0.833241 7.66379 0.833246 6.94053 0.833252 6.02772V5.97227C0.833246 5.05946 0.833241 4.3362 0.891996 3.75863C0.952195 3.16686 1.07818 2.67284 1.36693 2.24069C1.59797 1.89492 1.89484 1.59804 2.24061 1.36701C2.67276 1.07826 3.16679 0.952271 3.75855 0.892073C4.33612 0.833318 5.05939 0.833323 5.97219 0.833329L10.0276 0.833328C10.9404 0.833322 11.6637 0.833318 12.2413 0.892072ZM3.66659 3.5C3.94273 3.5 4.16658 3.72385 4.16658 4L4.16659 8C4.16659 8.27614 3.94273 8.5 3.66659 8.5C3.39044 8.5 3.16659 8.27614 3.16659 8L3.16659 4C3.16659 3.72385 3.39044 3.5 3.66659 3.5ZM7.99992 4.5C7.17149 4.5 6.49992 5.17157 6.49992 6C6.49992 6.82842 7.17149 7.5 7.99992 7.5C8.82835 7.5 9.49992 6.82842 9.49992 6C9.49992 5.17157 8.82835 4.5 7.99992 4.5ZM5.49992 6C5.49992 4.61928 6.61921 3.5 7.99992 3.5C9.38063 3.5 10.4999 4.61928 10.4999 6C10.4999 7.38071 9.38063 8.5 7.99992 8.5C6.61921 8.5 5.49992 7.38071 5.49992 6ZM12.3333 3.5C12.6094 3.5 12.8333 3.72385 12.8333 4V8C12.8333 8.27614 12.6094 8.5 12.3333 8.5C12.0571 8.5 11.8333 8.27614 11.8333 8V4C11.8333 3.72385 12.0571 3.5 12.3333 3.5Z" fill="white"/>
</svg>
