<svg width="17" height="17" viewBox="0 0 17 17" fill="none" xmlns="http://www.w3.org/2000/svg">
<path d="M12.4606 12.8562L14.5386 7.37907C15.8505 3.92132 16.5064 2.19245 15.6568 1.34289C14.8073 0.493335 13.0784 1.14926 9.62066 2.46111L4.14351 4.5391C2.04393 5.33567 0.994144 5.73395 0.5879 6.23933C0.00097347 6.96948 -0.0851169 7.94724 0.374824 8.6593C0.693175 9.15216 1.67592 9.51533 3.6414 10.2417C4.36856 10.5104 4.73213 10.6447 5.04584 10.8413C5.4971 11.124 5.87573 11.5026 6.15845 11.9539C6.35499 12.2676 6.48935 12.6312 6.75806 13.3583C7.48439 15.3238 7.84756 16.3065 8.34042 16.6249C9.05248 17.0848 10.0302 16.9987 10.7604 16.4118C11.2658 16.0056 11.664 14.9558 12.4606 12.8562Z" fill="white"/>
</svg>
