<svg width="26" height="24" viewBox="0 0 26 24" fill="none" xmlns="http://www.w3.org/2000/svg">
<path d="M23.2495 14.7908L23.494 12.5179C23.6244 11.3052 23.7106 10.5044 23.643 9.99986L23.6666 10C24.7712 10 25.6666 9.10457 25.6666 8C25.6666 6.89543 24.7712 6 23.6666 6C22.562 6 21.6666 6.89543 21.6666 8C21.6666 8.49955 21.8497 8.95632 22.1525 9.30683C21.7178 9.57515 21.1495 10.1413 20.2939 10.9935L20.2939 10.9935C19.6348 11.6501 19.3053 11.9783 18.9377 12.0292C18.734 12.0573 18.5264 12.0284 18.3383 11.9455C17.9988 11.7961 17.7725 11.3902 17.3198 10.5786L14.9339 6.30053C14.6546 5.79983 14.4209 5.38076 14.2101 5.04353C15.0746 4.6025 15.6666 3.70371 15.6666 2.66667C15.6666 1.19391 14.4727 0 12.9999 0C11.5272 0 10.3333 1.19391 10.3333 2.66667C10.3333 3.70371 10.9252 4.6025 11.7897 5.04353C11.5789 5.38079 11.3453 5.79979 11.066 6.30053L8.68 10.5786C8.22733 11.3902 8.001 11.7961 7.66153 11.9455C7.47343 12.0284 7.26588 12.0573 7.06218 12.0292C6.69455 11.9783 6.365 11.6501 5.70591 10.9935C4.85041 10.1413 4.282 9.57515 3.84729 9.30683C4.1501 8.95632 4.33325 8.49955 4.33325 8C4.33325 6.89543 3.43782 6 2.33325 6C1.22868 6 0.333252 6.89543 0.333252 8C0.333252 9.10457 1.22868 10 2.33325 10L2.35687 9.99986C2.28927 10.5044 2.37541 11.3052 2.50585 12.5179L2.75032 14.7908C2.88602 16.0524 2.99887 17.2529 3.13708 18.3333H22.8628C23.001 17.2529 23.1138 16.0524 23.2495 14.7908Z" fill="white"/>
<path d="M11.5493 24H14.4505C18.2317 24 20.1224 24 21.3838 22.8709C21.9344 22.3781 22.2831 21.4896 22.5346 20.3333H3.4652C3.71678 21.4896 4.06543 22.3781 4.61602 22.8709C5.87748 24 7.7681 24 11.5493 24Z" fill="white"/>
</svg>
