<svg width="30" height="30" viewBox="0 0 30 30" fill="none" xmlns="http://www.w3.org/2000/svg">
<path d="M8.00209 14.7866C8.02823 13.4049 8.0413 12.7141 8.46965 12.1227C8.54784 12.0148 8.66255 11.8865 8.7587 11.7996C9.28547 11.3231 9.98096 11.3231 11.3719 11.3231C11.8689 11.3231 12.1174 11.3231 12.3542 11.2534C12.4035 11.2389 12.4522 11.2222 12.5002 11.2034C12.7315 11.1126 12.939 10.9563 13.354 10.6437C14.991 9.41054 15.8096 8.79395 16.4966 9.0618C16.6283 9.11316 16.7558 9.18729 16.8697 9.27872C17.4636 9.75558 17.5087 10.8651 17.599 13.084C17.6324 13.9057 17.6552 14.6089 17.6552 15C17.6552 15.3911 17.6324 16.0943 17.599 16.916C17.5087 19.1349 17.4636 20.2444 16.8697 20.7213C16.7558 20.8127 16.6283 20.8868 16.4966 20.9382C15.8096 21.2061 14.991 20.5895 13.354 19.3563C12.939 19.0437 12.7315 18.8874 12.5002 18.7966C12.4522 18.7778 12.4035 18.7611 12.3542 18.7466C12.1174 18.6769 11.8689 18.6769 11.3719 18.6769C9.98096 18.6769 9.28547 18.6769 8.7587 18.2004C8.66255 18.1135 8.54784 17.9852 8.46965 17.8773C8.0413 17.2859 8.02823 16.5951 8.00209 15.2134C8.00072 15.1408 8 15.0696 8 15C8 14.9304 8.00072 14.8592 8.00209 14.7866Z" fill="white"/>
<path fill-rule="evenodd" clip-rule="evenodd" d="M20.2427 10.1641C20.4475 9.96914 20.7519 10.0008 20.9226 10.2348L20.5517 10.5878C20.9226 10.2348 20.9224 10.2345 20.9226 10.2348L20.9233 10.2358L20.9242 10.2369L20.9261 10.2396L20.9309 10.2464C20.9346 10.2516 20.9391 10.2582 20.9445 10.2661C20.9552 10.282 20.9692 10.3033 20.986 10.3302C21.0197 10.384 21.0645 10.46 21.1165 10.5592C21.2208 10.7576 21.3539 11.0482 21.4851 11.4378C21.7478 12.2183 22 13.3885 22 15.0002C22 16.6118 21.7478 17.782 21.4851 18.5626C21.3539 18.9522 21.2208 19.2428 21.1165 19.4412C21.0645 19.5403 21.0197 19.6164 20.986 19.6702C20.9692 19.6971 20.9552 19.7184 20.9445 19.7342C20.9391 19.7422 20.9346 19.7488 20.9309 19.754L20.9261 19.7608L20.9242 19.7634L20.9233 19.7646C20.9231 19.7648 20.9226 19.7656 20.5517 19.4125L20.9226 19.7656C20.7519 19.9996 20.4475 20.0312 20.2427 19.8362C20.0388 19.6421 20.0104 19.2968 20.1784 19.0628C20.1788 19.0622 20.1796 19.0611 20.1807 19.0595C20.1841 19.0545 20.1908 19.0444 20.2004 19.029C20.2196 18.9983 20.2502 18.9468 20.2886 18.8736C20.3655 18.7274 20.4737 18.494 20.5839 18.1666C20.8039 17.5131 21.0345 16.4772 21.0345 15.0002C21.0345 13.5232 20.8039 12.4873 20.5839 11.8338C20.4737 11.5064 20.3655 11.273 20.2886 11.1267C20.2502 11.0535 20.2196 11.002 20.2004 10.9713C20.1908 10.956 20.1841 10.9459 20.1807 10.9408C20.1796 10.9392 20.1788 10.9381 20.1784 10.9376C20.1784 10.9375 20.1784 10.9376 20.1784 10.9376" fill="white"/>
<path fill-rule="evenodd" clip-rule="evenodd" d="M19.03 12.312C19.2631 12.164 19.557 12.26 19.6865 12.5262L19.2644 12.7941C19.6865 12.5262 19.6863 12.526 19.6865 12.5262L19.6869 12.5272L19.6874 12.5282L19.6885 12.5305L19.691 12.5357L19.6972 12.5492C19.7018 12.5596 19.7075 12.5726 19.7141 12.5884C19.7273 12.6201 19.744 12.6627 19.763 12.7168C19.8009 12.825 19.8476 12.9787 19.893 13.1811C19.9839 13.5862 20.069 14.1839 20.069 15.0003C20.069 15.8166 19.9839 16.4143 19.893 16.8195C19.8476 17.0218 19.8009 17.1755 19.763 17.2837C19.744 17.3378 19.7273 17.3805 19.7141 17.4121C19.7075 17.4279 19.7018 17.441 19.6972 17.4513L19.691 17.4648L19.6885 17.47L19.6874 17.4723L19.6869 17.4733C19.6868 17.4736 19.6865 17.4743 19.2644 17.2064L19.6865 17.4743C19.557 17.7406 19.2631 17.8365 19.03 17.6886C18.7989 17.5419 18.7144 17.2105 18.8392 16.9454L18.8424 16.9378C18.8468 16.9273 18.8553 16.9061 18.8665 16.874C18.889 16.8099 18.9227 16.7016 18.9577 16.5455C19.0277 16.2336 19.1035 15.7282 19.1035 15.0003C19.1035 14.2723 19.0277 13.7669 18.9577 13.4551C18.9227 13.2989 18.889 13.1906 18.8665 13.1265C18.8553 13.0944 18.8468 13.0733 18.8424 13.0627L18.8392 13.0552C18.7144 12.79 18.7989 12.4586 19.03 12.312Z" fill="white"/>
</svg>
